<svg xmlns="http://www.w3.org/2000/svg" xmlns:xlink="http://www.w3.org/1999/xlink" viewBox="0 0 625.35 625.35"><defs><style>.a{fill:none;}.b,.c,.d{fill:#e0e0e0;}.b{opacity:0.02;}.c{opacity:0.05;}.d{opacity:0.1;}.e{opacity:0.01;fill:url(#a);}.f{fill:url(#b);}.g{fill:url(#c);}.h{fill:url(#d);}.i{fill:url(#e);}.j{fill:url(#f);}.k{fill:url(#g);}.l{fill:url(#h);}.m{fill:url(#i);}.n{fill:url(#j);}.o{fill:url(#k);}.p{fill:url(#l);}.q{fill:url(#m);}.r{fill:url(#n);}.s{fill:url(#o);}.t{fill:url(#p);}.u{fill:url(#q);}.v{fill:url(#r);}.w{font-size:24.16px;font-family:MyriadPro-Regular, Myriad Pro;}.w,.y{fill:#fff;}.x{fill:#d39dd7;}.y{font-size:35.43px;font-family:ArialMT, Arial;}.z{clip-path:url(#s);}.aa{fill:url(#t);}.ab{fill:url(#u);}.ac{fill:url(#v);}.ad{fill:url(#w);}.ae{fill:url(#x);}.af{fill:url(#y);}.ag{fill:url(#z);}</style><radialGradient id="a" cx="287.05" cy="482.4" r="312.68" gradientUnits="userSpaceOnUse"><stop offset="0.91" stop-color="#e0e0e0"/><stop offset="0.91" stop-color="#e0e0e0" stop-opacity="0.83"/><stop offset="0.92" stop-color="#e0e0e0" stop-opacity="0.61"/><stop offset="0.94" stop-color="#e0e0e0" stop-opacity="0.43"/><stop offset="0.95" stop-color="#e0e0e0" stop-opacity="0.27"/><stop offset="0.96" stop-color="#e0e0e0" stop-opacity="0.15"/><stop offset="0.97" stop-color="#e0e0e0" stop-opacity="0.07"/><stop offset="0.99" stop-color="#e0e0e0" stop-opacity="0.02"/><stop offset="1" stop-color="#e0e0e0" stop-opacity="0"/></radialGradient><linearGradient id="b" x1="310.79" y1="167.01" x2="310.79" y2="458.39" gradientUnits="userSpaceOnUse"><stop offset="0" stop-color="#d259a0"/><stop offset="0.77" stop-color="#a585e2"/></linearGradient><linearGradient id="c" x1="271.49" y1="271.74" x2="303.24" y2="303.49" gradientUnits="userSpaceOnUse"><stop offset="0" stop-color="#ffe388"/><stop offset="1" stop-color="#ffbd63"/></linearGradient><linearGradient id="d" x1="317.05" y1="271.74" x2="348.8" y2="303.49" xlink:href="#c"/><linearGradient id="e" x1="362.83" y1="271.74" x2="394.58" y2="303.49" xlink:href="#c"/><linearGradient id="f" x1="225.93" y1="271.74" x2="257.68" y2="303.49" xlink:href="#c"/><linearGradient id="g" x1="272" y1="317.58" x2="303.75" y2="349.33" xlink:href="#c"/><linearGradient id="h" x1="317.56" y1="317.58" x2="349.31" y2="349.33" xlink:href="#c"/><linearGradient id="i" x1="363.34" y1="317.58" x2="395.09" y2="349.33" xlink:href="#c"/><linearGradient id="j" x1="226.44" y1="317.58" x2="258.19" y2="349.33" xlink:href="#c"/><linearGradient id="k" x1="271.19" y1="363.42" x2="302.94" y2="395.17" xlink:href="#c"/><linearGradient id="l" x1="316.75" y1="363.42" x2="348.5" y2="395.17" xlink:href="#c"/><linearGradient id="m" x1="362.53" y1="363.42" x2="394.28" y2="395.17" xlink:href="#c"/><linearGradient id="n" x1="225.64" y1="363.42" x2="257.39" y2="395.17" xlink:href="#c"/><linearGradient id="o" x1="271.19" y1="409.25" x2="302.94" y2="441" xlink:href="#c"/><linearGradient id="p" x1="316.75" y1="409.25" x2="348.5" y2="441" xlink:href="#c"/><linearGradient id="q" x1="362.53" y1="409.25" x2="394.28" y2="441" xlink:href="#c"/><linearGradient id="r" x1="225.64" y1="409.25" x2="257.39" y2="441" xlink:href="#c"/><clipPath id="s" transform="translate(25.63 -169.73)"><rect class="a" x="92.45" y="243.43" width="195.04" height="117.44" transform="translate(-114.92 116.61) rotate(-26.52)"/></clipPath><linearGradient id="t" x1="202.96" y1="149.78" x2="282.45" y2="149.78" xlink:href="#c"/><linearGradient id="u" x1="160.48" y1="156.8" x2="247.9" y2="156.8" xlink:href="#c"/><linearGradient id="v" x1="154.41" y1="172.71" x2="166.99" y2="172.71" xlink:href="#c"/><linearGradient id="w" x1="170.37" y1="143.65" x2="182.96" y2="143.65" xlink:href="#c"/><linearGradient id="x" x1="196.48" y1="104.84" x2="209.06" y2="104.84" xlink:href="#c"/><linearGradient id="y" x1="243.56" y1="107.13" x2="256.14" y2="107.13" xlink:href="#c"/><linearGradient id="z" x1="276.38" y1="111.84" x2="288.97" y2="111.84" xlink:href="#c"/></defs><title>calculator</title><path class="b" d="M287,243.77c-131.8,0-238.65,106.85-238.65,238.65S155.22,721.08,287,721.08,525.68,614.23,525.68,482.42,418.83,243.77,287,243.77Zm0,442.33c-112.48,0-203.67-91.19-203.67-203.68S174.54,278.75,287,278.75,490.7,369.94,490.7,482.42,399.51,686.1,287,686.1Z" transform="translate(25.63 -169.73)"/><path class="c" d="M287.42,302A180.05,180.05,0,1,0,467.47,482,180,180,0,0,0,287.42,302Zm0,333.71A153.66,153.66,0,1,1,441.08,482,153.67,153.67,0,0,1,287.42,635.69Z" transform="translate(25.63 -169.73)"/><path class="d" d="M287,352.85A129.62,129.62,0,1,0,416.6,482.46,129.61,129.61,0,0,0,287,352.85Zm0,240.23A110.62,110.62,0,1,1,397.6,482.46,110.61,110.61,0,0,1,287,593.08Z" transform="translate(25.63 -169.73)"/><path class="e" d="M287,169.73c-172.68,0-312.67,140-312.67,312.67S114.36,795.08,287,795.08s312.68-140,312.68-312.68S459.73,169.73,287,169.73Zm0,579.52C139.67,749.25,20.2,629.78,20.2,482.4S139.67,215.56,287,215.56,553.89,335,553.89,482.4,434.42,749.25,287,749.25Z" transform="translate(25.63 -169.73)"/><rect class="f" x="207.01" y="167.01" width="207.55" height="291.38" rx="10.67"/><rect class="g" x="267.44" y="271.07" width="39.85" height="33.1" rx="8.04"/><rect class="h" x="313" y="271.07" width="39.85" height="33.1" rx="8.04"/><rect class="i" x="358.78" y="271.07" width="39.85" height="33.1" rx="8.04"/><rect class="j" x="221.88" y="271.07" width="39.85" height="33.1" rx="8.04"/><rect class="k" x="267.95" y="316.91" width="39.85" height="33.1" rx="8.04"/><rect class="l" x="313.51" y="316.91" width="39.85" height="33.1" rx="8.04"/><rect class="m" x="359.29" y="316.91" width="39.85" height="33.1" rx="8.04"/><rect class="n" x="222.39" y="316.91" width="39.85" height="33.1" rx="8.04"/><rect class="o" x="267.14" y="362.74" width="39.85" height="33.1" rx="8.04"/><rect class="p" x="312.7" y="362.74" width="39.85" height="33.1" rx="8.04"/><rect class="q" x="358.48" y="362.74" width="39.85" height="33.1" rx="8.04"/><rect class="r" x="221.58" y="362.74" width="39.85" height="33.1" rx="8.04"/><rect class="s" x="267.14" y="408.58" width="39.85" height="33.1" rx="8.04"/><rect class="t" x="312.7" y="408.58" width="39.85" height="33.1" rx="8.04"/><rect class="u" x="358.48" y="408.58" width="39.85" height="33.1" rx="8.04"/><rect class="v" x="221.58" y="408.58" width="39.85" height="33.1" rx="8.04"/><text class="w" transform="translate(235.66 295.47)">7</text><text class="w" transform="translate(281.13 295.47)">8</text><text class="w" transform="translate(326.73 295.47)">9</text><text class="w" transform="translate(236.12 341.31)">4</text><text class="w" transform="translate(281.68 341.31)">5</text><text class="w" transform="translate(327.24 341.31)">6</text><text class="w" transform="translate(235.31 387.14)">1</text><text class="w" transform="translate(280.87 387.14)">2</text><text class="w" transform="translate(326.43 387.14)">3</text><text class="w" transform="translate(235.31 432.98)">0</text><text class="w" transform="translate(325.58 431.69)">=</text><text class="w" transform="translate(371.21 431.69)">+</text><text class="w" transform="translate(372.02 340.02)">×</text><text class="w" transform="translate(371.51 294.18)">÷</text><text class="w" transform="translate(370.99 385.85)">−</text><text class="w" transform="translate(284.59 426.53)">.</text><rect class="x" x="221.48" y="184.14" width="177.77" height="63.7" rx="7.91"/><text class="y" transform="translate(327.83 228.98)">$$$</text><g class="z"><polygon class="aa" points="276.05 180.77 282.45 111.4 259.31 147.22 250.18 105.45 238.48 146.58 202.96 104.75 247.91 194.82 276.05 180.77"/><polygon class="ab" points="219.76 208.86 160.48 172.27 203.01 175.31 175.12 142.9 215.03 158.28 202.96 104.75 247.91 194.82 219.76 208.86"/><circle class="ac" cx="160.7" cy="172.71" r="6.29"/><circle class="ad" cx="176.67" cy="143.65" r="6.29"/><circle class="ae" cx="202.77" cy="104.84" r="6.29"/><circle class="af" cx="249.85" cy="107.13" r="6.29"/><circle class="ag" cx="282.67" cy="111.84" r="6.29"/></g></svg>