<svg xmlns="http://www.w3.org/2000/svg" xmlns:xlink="http://www.w3.org/1999/xlink" viewBox="0 0 479.76 481.45"><defs><style>.a{fill:none;}.b{fill:url(#a);}.c{opacity:0.2;}.d{fill:url(#b);}.e{clip-path:url(#c);}.f{fill:#fff;}.g{fill:#f9db5a;}</style><linearGradient id="a" x1="10.12" y1="240.19" x2="474.71" y2="240.19" gradientUnits="userSpaceOnUse"><stop offset="0" stop-color="#5ba4d7"/><stop offset="0.27" stop-color="#5fadd4"/><stop offset="0.72" stop-color="#6bc7cc"/><stop offset="0.99" stop-color="#73d9c6"/></linearGradient><linearGradient id="b" x1="25.29" y1="259.67" x2="489.88" y2="259.67" xlink:href="#a"/><clipPath id="c" transform="translate(-10.12 -9.2)"><rect class="a" x="131.92" y="97.38" width="221" height="121.43"/></clipPath></defs><title>lock</title><path class="b" d="M48.88,99.19C93.26,40,158.73,25.34,191.33,18c13.84-3.1,177-37.48,250.11,54.66,79.34,100,6.81,290.92-112.63,362.75-14.87,8.94-91.67,55.13-175.58,26.5-94.31-32.18-124-133.76-130.85-157.36C16.64,284.91-13.36,182.15,48.88,99.19Z" transform="translate(-10.12 -9.2)"/><g class="c"><path class="d" d="M64.05,118.67C108.43,59.51,173.9,44.82,206.5,37.51c13.83-3.1,177-37.48,250.11,54.66C536,192.13,463.42,383.08,344,454.91c-14.87,8.94-91.67,55.13-175.58,26.5-94.31-32.17-124-133.76-130.85-157.35C31.81,304.39,1.81,201.64,64.05,118.67Z" transform="translate(-10.12 -9.2)"/></g><g class="e"><path class="f" d="M306.85,232.87A81.6,81.6,0,0,1,272.53,262H205.68a81.16,81.16,0,0,1-22.52-15.14V193.17a52.14,52.14,0,0,1,.25-5.33H157.77V287.93H320.44V232.87Zm-12.05-45a52.12,52.12,0,0,1,.26,5.33v8.12h25.38V187.84Z" transform="translate(-10.12 -9.2)"/><path class="f" d="M239.11,106.51a81.33,81.33,0,0,0-56,140.37V193.17a52.14,52.14,0,0,1,.25-5.33,55.95,55.95,0,0,1,111.39,0,52.12,52.12,0,0,1,.26,5.33v8.12h24.28a81.44,81.44,0,0,0-80.23-94.78ZM205.68,262a81.6,81.6,0,0,0,66.85,0Z" transform="translate(-10.12 -9.2)"/></g><rect class="g" x="121.8" y="209.6" width="214.38" height="139.35" rx="33.41"/></svg>