<svg xmlns="http://www.w3.org/2000/svg" xmlns:xlink="http://www.w3.org/1999/xlink" viewBox="0 0 479.28 493.69"><defs><style>.a{fill:url(#a);}.b{opacity:0.2;fill:url(#b);}.c{font-size:379.73px;}.c,.d{fill:#fff;font-family:Courier;}.d{font-size:303.78px;}</style><linearGradient id="a" x1="27.23" y1="256.07" x2="489.64" y2="256.07" gradientUnits="userSpaceOnUse"><stop offset="0" stop-color="#792764"/><stop offset="0.21" stop-color="#702665"/><stop offset="0.57" stop-color="#562467"/><stop offset="0.99" stop-color="#30206b"/></linearGradient><linearGradient id="b" x1="10.36" y1="243.93" x2="472.77" y2="243.93" xlink:href="#a"/></defs><title>terminal</title><path class="a" d="M134.9,475C73.4,449,25.08,382.81,27.3,321.94,28.89,278.4,55.07,272.41,69.51,204c14.35-68-7.15-82.92,9.2-114.58C111.81,25.38,240.33,8,336.41,42.93c24.29,8.82,94.73,34.41,131.75,108.51,35.78,71.61,24.29,156.41-15.5,215.07-37.52,55.32-91.51,74.54-143.38,93C250.22,480.53,194.7,500.3,134.9,475Z" transform="translate(-10.36 -13.1)"/><path class="b" d="M118,462.87c-61.5-26-109.82-92.2-107.6-153.07C12,266.26,38.2,260.27,52.64,191.87c14.35-68-7.15-82.92,9.2-114.58,33.1-64.05,161.62-81.39,257.7-46.5,24.29,8.82,94.73,34.4,131.75,108.5,35.78,71.62,24.29,156.42-15.5,215.07-37.52,55.33-91.51,74.55-143.38,93C233.35,468.39,177.83,488.15,118,462.87Z" transform="translate(-10.36 -13.1)"/><text class="c" transform="translate(156.9 338.31) scale(0.66 1)">&gt;</text><text class="d" transform="translate(273.14 250.89) scale(0.56 1)">_</text></svg>