<svg xmlns="http://www.w3.org/2000/svg" xmlns:xlink="http://www.w3.org/1999/xlink" viewBox="0 0 485.01 479.95"><defs><style>.a{fill:url(#a);}.b{opacity:0.2;fill:url(#b);}.c{font-size:200px;fill:#ffe388;font-family:Thonburi;}</style><linearGradient id="a" x1="8.61" y1="242.18" x2="473.11" y2="242.18" gradientUnits="userSpaceOnUse"><stop offset="0" stop-color="#ea826d"/><stop offset="0.14" stop-color="#eb8b72"/><stop offset="0.37" stop-color="#f0a57e"/><stop offset="0.58" stop-color="#f4c18c"/></linearGradient><linearGradient id="b" x1="29.12" y1="257.96" x2="493.62" y2="257.96" gradientUnits="userSpaceOnUse"><stop offset="0" stop-color="#ea826d"/><stop offset="0.24" stop-color="#eb8b72"/><stop offset="0.64" stop-color="#f0a57e"/><stop offset="1" stop-color="#f4c18c"/></linearGradient></defs><title>number</title><path class="a" d="M84.82,53.77C140.14,8.58,218.24-.3,281.81,21.39c15,5.13,85.09,31,117.53,97.14,22.14,45.14,9.82,74.48,44.77,139.94,15.14,28.35,22.46,32.22,26.72,52,9.22,42.94-10.68,92.1-39,121.42C372.28,493.51,270,473.49,203.46,460.48c-60.41-11.83-95.7-18.73-127.6-48.2C-8.84,334-21.74,140.81,84.82,53.77Z" transform="translate(-8.61 -10.09)"/><path class="b" d="M105.32,69.55c55.33-45.2,133.43-54.08,197-32.38,15,5.13,85.09,31,117.53,97.14,22.14,45.13,9.82,74.47,44.77,139.93,15.14,28.36,22.46,32.23,26.71,52,9.23,43-10.68,92.1-39,121.43C392.79,509.29,290.47,489.26,224,476.25c-60.41-11.82-95.7-18.72-127.6-48.2C11.67,349.78-1.23,156.59,105.32,69.55Z" transform="translate(-8.61 -10.09)"/><text class="c" transform="translate(99.02 326.96)">#1</text></svg>