<svg xmlns="http://www.w3.org/2000/svg" xmlns:xlink="http://www.w3.org/1999/xlink" viewBox="0 0 488.23 468.93"><defs><style>.a{fill:url(#a);}.b{opacity:0.25;fill:url(#b);}.c,.d{fill:none;stroke:#fff;stroke-miterlimit:10;stroke-width:4px;}.d{stroke-dasharray:11.8 11.8;}.e{fill:#fff;}</style><linearGradient id="a" x1="32.29" y1="247.77" x2="494.11" y2="247.77" gradientUnits="userSpaceOnUse"><stop offset="0" stop-color="#ffb5a8"/><stop offset="0.22" stop-color="#ffacaa"/><stop offset="0.59" stop-color="#ff92b1"/><stop offset="1" stop-color="#ff6fba"/></linearGradient><linearGradient id="b" x1="5.89" y1="252.23" x2="467.71" y2="252.23" xlink:href="#a"/></defs><title>template</title><path class="a" d="M469.64,418.11c-37.07,50.48-113.62,56-168.49,59.63-61.94,4.07-181,11.91-241.08-72.59C-15.07,299.5,85.41,145.06,91.18,136.42c12.73-19.09,82.15-123.15,174.74-120.85C418.06,19.35,550.39,308.2,469.64,418.11Z" transform="translate(-5.89 -15.53)"/><path class="b" d="M443.24,422.58c-37.08,50.47-113.63,56-168.5,59.63-61.93,4.07-181,11.91-241.08-72.59C-41.48,304,59,149.53,64.77,140.89,77.5,121.8,146.92,17.74,239.52,20,391.65,23.82,524,312.67,443.24,422.58Z" transform="translate(-5.89 -15.53)"/><line class="c" x1="257.32" y1="139.66" x2="257.32" y2="145.66"/><line class="d" x1="257.32" y1="157.46" x2="257.32" y2="387.62"/><line class="c" x1="257.32" y1="393.52" x2="257.32" y2="399.52"/><rect class="e" x="312.83" y="256.59" width="90.01" height="13" rx="6.5"/><rect class="e" x="312.83" y="223.7" width="90.01" height="13" rx="6.5"/><rect class="e" x="312.83" y="289.48" width="90.01" height="13" rx="6.5"/><path class="e" d="M402.39,210.82a26.83,26.83,0,0,1,26.8,26.8V315a26.84,26.84,0,0,1-26.8,26.81H325.06A26.84,26.84,0,0,1,298.26,315V237.62a26.83,26.83,0,0,1,26.8-26.8h77.33m0-7H325.06a33.8,33.8,0,0,0-33.8,33.8V315a33.8,33.8,0,0,0,33.8,33.81h77.33A33.8,33.8,0,0,0,436.19,315V237.62a33.8,33.8,0,0,0-33.8-33.8Z" transform="translate(-5.89 -15.53)"/><path class="e" d="M203,348.76H125.66A33.8,33.8,0,0,1,91.86,315V237.62a33.8,33.8,0,0,1,33.8-33.8H203a33.8,33.8,0,0,1,33.81,33.8V315A33.81,33.81,0,0,1,203,348.76Zm6.34-70.14h0a6.5,6.5,0,0,0-6.5-6.5h-77a6.5,6.5,0,0,0-6.5,6.5h0a6.5,6.5,0,0,0,6.5,6.5h77A6.5,6.5,0,0,0,209.33,278.62Zm0-32.89h0a6.5,6.5,0,0,0-6.5-6.5h-77a6.5,6.5,0,0,0-6.5,6.5h0a6.5,6.5,0,0,0,6.5,6.5h77A6.5,6.5,0,0,0,209.33,245.73Zm0,65.78h0a6.5,6.5,0,0,0-6.5-6.5h-77a6.5,6.5,0,0,0-6.5,6.5h0a6.5,6.5,0,0,0,6.5,6.5h77A6.5,6.5,0,0,0,209.33,311.51Z" transform="translate(-5.89 -15.53)"/></svg>